<svg width="135" height="99" viewBox="0 0 135 99" fill="none" xmlns="http://www.w3.org/2000/svg">
<g filter="url(#filter0_d_55_124)">
<path d="M44.0723 42.448H49.2083C50.1203 42.448 50.9203 42.552 51.6083 42.76C52.3123 42.968 52.8963 43.256 53.3603 43.624C53.8243 43.992 54.1763 44.432 54.4163 44.944C54.6563 45.44 54.7763 45.984 54.7763 46.576C54.7763 47.344 54.5843 48.048 54.2003 48.688C53.8163 49.312 53.2723 49.792 52.5683 50.128C53.4163 50.384 54.0883 50.8 54.5843 51.376C55.0963 51.952 55.3523 52.648 55.3523 53.464C55.3523 54.056 55.2483 54.624 55.0403 55.168C54.8323 55.712 54.4963 56.2 54.0323 56.632C53.5843 57.048 52.9923 57.384 52.2563 57.64C51.5363 57.88 50.6483 58 49.5923 58H44.0723V42.448ZM47.6483 51.52V55.288H49.5203C50.3363 55.288 50.9363 55.112 51.3203 54.76C51.7043 54.408 51.8963 53.944 51.8963 53.368C51.8963 52.792 51.6883 52.344 51.2723 52.024C50.8723 51.688 50.3043 51.52 49.5683 51.52H47.6483ZM47.6483 45.28V48.88H49.0883C49.4883 48.88 49.8243 48.832 50.0963 48.736C50.3843 48.624 50.6163 48.48 50.7923 48.304C50.9683 48.128 51.0963 47.928 51.1763 47.704C51.2563 47.48 51.2963 47.248 51.2963 47.008C51.2963 46.528 51.0963 46.12 50.6963 45.784C50.3123 45.448 49.7763 45.28 49.0883 45.28H47.6483ZM65.0033 56.92C64.5873 57.336 64.1313 57.664 63.6353 57.904C63.1553 58.144 62.5713 58.264 61.8833 58.264C61.1633 58.264 60.4913 58.136 59.8673 57.88C59.2593 57.624 58.7313 57.248 58.2833 56.752C57.8353 56.256 57.4833 55.64 57.2273 54.904C56.9713 54.168 56.8433 53.32 56.8433 52.36C56.8433 51.496 56.9713 50.704 57.2273 49.984C57.4833 49.264 57.8353 48.648 58.2833 48.136C58.7313 47.624 59.2593 47.232 59.8673 46.96C60.4913 46.672 61.1633 46.528 61.8833 46.528C62.5393 46.528 63.1153 46.632 63.6113 46.84C64.1233 47.048 64.5873 47.336 65.0033 47.704V46.768H68.5553V58H65.0033V56.92ZM62.7233 55.336C63.5073 55.336 64.1153 55.056 64.5473 54.496C64.9793 53.936 65.1953 53.232 65.1953 52.384C65.1953 51.424 64.9553 50.696 64.4753 50.2C64.0113 49.704 63.4193 49.456 62.6993 49.456C61.9153 49.456 61.3073 49.736 60.8753 50.296C60.4593 50.84 60.2513 51.536 60.2513 52.384C60.2513 53.248 60.4673 53.96 60.8993 54.52C61.3313 55.064 61.9393 55.336 62.7233 55.336ZM81.2052 56.608C80.9812 56.8 80.7252 57 80.4372 57.208C80.1652 57.416 79.8452 57.608 79.4772 57.784C79.1252 57.944 78.7252 58.08 78.2772 58.192C77.8292 58.304 77.3252 58.36 76.7652 58.36C75.8532 58.36 75.0292 58.216 74.2932 57.928C73.5572 57.624 72.9252 57.2 72.3972 56.656C71.8692 56.112 71.4612 55.472 71.1732 54.736C70.9012 54 70.7652 53.184 70.7652 52.288C70.7652 51.52 70.8932 50.784 71.1492 50.08C71.4212 49.36 71.8052 48.728 72.3012 48.184C72.8132 47.64 73.4292 47.208 74.1492 46.888C74.8852 46.568 75.7252 46.408 76.6692 46.408C77.6292 46.408 78.4212 46.552 79.0452 46.84C79.6852 47.112 80.2372 47.408 80.7012 47.728L79.1652 50.224C78.9252 50.096 78.6292 49.952 78.2772 49.792C77.9252 49.616 77.4532 49.528 76.8612 49.528C76.1252 49.528 75.4932 49.784 74.9652 50.296C74.4532 50.792 74.1972 51.472 74.1972 52.336C74.1972 53.232 74.4612 53.944 74.9892 54.472C75.5332 55 76.1972 55.264 76.9812 55.264C77.5892 55.264 78.0772 55.16 78.4452 54.952C78.8292 54.728 79.1812 54.504 79.5012 54.28L81.2052 56.608ZM86.5501 52.864V58H82.9981V40.72H86.5501V51.208L89.7901 46.768H93.8701L89.7661 51.808L94.7821 58H90.6301L86.5501 52.864Z" fill="white"/>
</g>
<path d="M12 62L2 52L12 42" stroke="white" stroke-width="4" stroke-linecap="round" stroke-linejoin="round"/>
<path d="M3.38892 52H23.6667" stroke="white" stroke-width="4" stroke-linecap="round" stroke-linejoin="round"/>
<defs>
<filter id="filter0_d_55_124" x="4.07227" y="0.719971" width="130.71" height="97.64" filterUnits="userSpaceOnUse" color-interpolation-filters="sRGB">
<feFlood flood-opacity="0" result="BackgroundImageFix"/>
<feColorMatrix in="SourceAlpha" type="matrix" values="0 0 0 0 0 0 0 0 0 0 0 0 0 0 0 0 0 0 127 0" result="hardAlpha"/>
<feOffset/>
<feGaussianBlur stdDeviation="20"/>
<feComposite in2="hardAlpha" operator="out"/>
<feColorMatrix type="matrix" values="0 0 0 0 1 0 0 0 0 1 0 0 0 0 1 0 0 0 0.25 0"/>
<feBlend mode="normal" in2="BackgroundImageFix" result="effect1_dropShadow_55_124"/>
<feBlend mode="normal" in="SourceGraphic" in2="effect1_dropShadow_55_124" result="shape"/>
</filter>
</defs>
</svg>
