<svg width="19" height="20" viewBox="0 0 19 20" fill="none" xmlns="http://www.w3.org/2000/svg">
<path d="M16.4351 6.66542L5.70077 0.509289C5.11992 0.173879 4.46065 -0.00182794 3.78992 1.43393e-05C3.11918 0.00185662 2.46089 0.181182 1.88189 0.519778C1.30289 0.858373 0.82382 1.34418 0.493334 1.92784C0.162849 2.51151 -0.0072762 3.17224 0.00023859 3.84293V16.1996C0.00023859 17.2076 0.400632 18.1742 1.11334 18.8869C1.82604 19.5996 2.79268 20 3.80059 20C4.46781 19.9989 5.12304 19.8226 5.70077 19.4888L16.4351 13.3327C17.0119 12.9989 17.4908 12.5193 17.8237 11.942C18.1566 11.3646 18.3318 10.7099 18.3318 10.0435C18.3318 9.37709 18.1566 8.72239 17.8237 8.14507C17.4908 7.56776 17.0119 7.08814 16.4351 6.75432V6.66542ZM15.3239 11.3214L4.58956 17.5664C4.34896 17.7028 4.07714 17.7745 3.80059 17.7745C3.52405 17.7745 3.25222 17.7028 3.01163 17.5664C2.77172 17.4279 2.5725 17.2287 2.434 16.9888C2.29551 16.7488 2.22262 16.4767 2.22267 16.1996V3.79849C2.22262 3.52146 2.29551 3.2493 2.434 3.00937C2.5725 2.76944 2.77172 2.57021 3.01163 2.43169C3.25322 2.29741 3.52423 2.22488 3.80059 2.22056C4.07677 2.22623 4.34746 2.29867 4.58956 2.43169L15.3239 8.63227C15.5639 8.77073 15.7632 8.96994 15.9018 9.20987C16.0404 9.4498 16.1133 9.72199 16.1133 9.99906C16.1133 10.2761 16.0404 10.5483 15.9018 10.7883C15.7632 11.0282 15.5639 11.2274 15.3239 11.3659V11.3214Z" fill="white"/>
</svg>
